/* XPM */
static char *cp[] = {
/* columns rows colors chars-per-pixel */
"16 16 16 1",
"  c black",
". c #101010",
"X c #202020",
"o c gray19",
"O c gray25",
"+ c #505050",
"@ c #606060",
"# c gray44",
"$ c #808080",
"% c gray56",
"& c #9F9F9F",
"* c #AFAFAF",
"= c gray75",
"- c #DFDFDF",
"; c #EFEFEF",
": c gray100",
/* pixels */
":O            O:",
"O              O",
"  .*:;$ o===*o  ",
"  &::::+O::::-  ",
"  ::.#:$O:$ =:o ",
"  :: o=@O:$ $:O ",
"  ::    O:$ %:O ",
"  ::    O:=$;:. ",
"  ::    O::::#  ",
"  ::    O:&OX   ",
"  :: o=@O:$     ",
"  ;:o#:$O:$     ",
"  &::::OO:$     ",
"  .&==+ o=@     ",
"O              O",
":O            O:"
};
